<?xml version="1.0" standalone="no"?>
<!DOCTYPE svg PUBLIC "-//W3C//DTD SVG 20010904//EN"
 "http://www.w3.org/TR/2001/REC-SVG-20010904/DTD/svg10.dtd">
<svg version="1.0" xmlns="http://www.w3.org/2000/svg"
 width="1592.000000pt" height="1592.000000pt" viewBox="0 0 1592.000000 1592.000000"
 preserveAspectRatio="xMidYMid meet">
<metadata>
Created by potrace 1.16, written by Peter Selinger 2001-2019
</metadata>
<g transform="translate(0.000000,1592.000000) scale(0.100000,-0.100000)"
fill="#000000" stroke="none">
<path d="M7073 15065 c-3 -9 -4 -18 -1 -20 2 -3 56 -12 119 -20 163 -23 361
-70 529 -125 146 -49 239 -86 190 -76 -470 94 -944 111 -1270 46 -168 -34
-324 -83 -328 -103 -4 -21 -4 -21 126 -41 57 -9 108 -19 114 -22 6 -4 -39 -17
-99 -29 -249 -51 -449 -119 -688 -235 -326 -159 -633 -390 -784 -591 -89 -117
-82 -129 48 -84 l72 24 -72 -77 c-97 -104 -181 -216 -256 -341 -60 -98 -73
-134 -55 -145 4 -2 48 4 97 14 50 10 91 17 93 15 2 -2 -12 -45 -31 -97 -80
-212 -130 -423 -168 -703 -29 -213 -31 -522 -5 -640 20 -89 50 -165 65 -165 6
0 27 26 48 58 34 51 38 54 40 32 9 -66 46 -233 68 -305 14 -44 25 -83 25 -87
0 -3 -28 -26 -62 -51 -96 -68 -144 -134 -184 -254 -37 -106 -45 -305 -19 -450
34 -190 97 -350 200 -508 88 -136 287 -376 351 -424 124 -92 247 -131 420
-131 l111 0 33 -122 c46 -172 99 -316 158 -433 l50 -101 -125 17 c-216 30
-392 42 -538 36 -220 -9 -321 -43 -406 -134 -60 -64 -87 -138 -101 -275 -11
-104 -13 -109 -47 -142 l-36 -35 -153 -6 c-286 -11 -453 -82 -631 -271 -139
-147 -195 -288 -211 -534 -5 -80 -12 -161 -15 -180 -18 -123 -27 -487 -30
-1110 -3 -707 -9 -883 -41 -1120 -27 -200 -98 -515 -206 -913 -29 -108 -47
-192 -42 -197 5 -5 68 -39 140 -77 l130 -68 -8 -35 c-4 -19 -11 -126 -14 -237
-4 -111 -11 -200 -16 -197 -4 3 -8 -2 -8 -12 0 -12 -10 -7 -40 19 -75 68 -180
106 -342 122 -91 9 -95 15 -75 123 23 119 22 301 -2 444 -124 721 -559 1094
-1241 1065 -444 -19 -815 -207 -1099 -557 -239 -294 -381 -618 -461 -1050 -25
-136 -37 -252 -54 -515 -10 -165 22 -491 64 -658 51 -198 170 -470 274 -626
225 -338 562 -521 957 -521 87 0 90 -1 99 -26 6 -14 10 -49 10 -77 1 -133 61
-290 151 -390 71 -80 167 -125 394 -184 163 -42 191 -46 295 -47 103 0 121 3
170 26 51 23 94 60 152 131 32 39 51 28 95 -57 102 -194 240 -245 606 -226
305 17 380 38 482 133 63 60 68 62 190 72 39 4 140 20 225 36 322 63 379 85
468 186 31 35 63 63 73 63 9 0 36 -25 59 -55 75 -98 153 -146 265 -166 94 -16
196 -6 372 36 194 47 263 70 314 107 31 22 44 27 49 17 5 -7 11 -60 15 -118
19 -327 109 -463 340 -514 68 -16 276 -40 445 -53 234 -17 383 52 440 202 34
92 44 159 115 809 37 336 73 624 80 641 l13 32 133 -5 c120 -5 140 -3 191 16
71 27 99 49 149 117 22 30 45 54 52 54 22 0 43 -57 147 -412 216 -731 361
-1203 390 -1263 77 -161 234 -217 521 -186 418 46 509 107 574 391 53 235 68
263 109 204 39 -54 111 -120 158 -141 80 -38 193 -48 386 -35 277 19 363 44
456 132 87 82 139 211 166 411 19 140 1 129 204 129 96 0 199 5 228 11 116 25
195 86 264 205 24 40 45 64 56 64 10 0 33 -24 54 -56 102 -153 269 -182 542
-93 51 17 99 28 107 25 8 -3 32 -41 54 -84 97 -192 254 -226 592 -126 68 21
137 39 153 42 l29 5 -7 -74 c-4 -41 -9 -131 -13 -200 -5 -112 -3 -135 16 -198
55 -180 169 -223 626 -237 259 -8 334 1 444 53 95 45 205 151 250 241 50 98
68 201 106 602 44 471 93 914 106 961 5 21 15 39 22 42 6 2 45 0 86 -5 93 -13
202 3 278 38 30 15 86 56 125 92 112 106 146 195 213 562 46 253 53 353 31
452 -34 152 -110 221 -292 263 -38 9 -393 70 -789 137 -573 96 -747 121 -851
125 -127 5 -132 6 -143 29 -6 14 -20 163 -31 332 -30 456 -48 547 -127 626
-71 72 -191 98 -338 72 -100 -17 -475 -141 -565 -186 -114 -58 -228 -189 -285
-327 -24 -61 -39 -139 -50 -263 -8 -88 -14 -96 -54 -76 -57 30 -191 41 -334
27 -161 -15 -294 -37 -366 -62 -79 -27 -82 -22 -74 146 7 149 -5 231 -42 305
-25 50 -84 109 -136 135 l-31 17 -48 -47 c-32 -32 -53 -45 -62 -40 -7 5 -10 4
-5 0 4 -5 -2 -18 -14 -31 l-20 -22 62 -11 c34 -6 64 -13 67 -16 3 -3 -2 -59
-11 -125 -23 -164 -59 -536 -107 -1115 -71 -863 -75 -905 -96 -905 -17 0 -17
0 1 225 8 99 15 195 15 214 0 62 -8 28 -15 -64 -5 -71 -20 -214 -37 -363 -1
-9 -15 -11 -47 -7 -25 2 -117 7 -203 10 -125 5 -158 3 -159 -7 -1 -7 -4 -98
-8 -203 -4 -116 -10 -190 -16 -190 -6 0 -14 82 -20 207 -5 113 -13 210 -17
214 -5 4 -8 2 -8 -4 0 -10 -29 -19 -30 -9 -1 9 -21 902 -29 1317 -6 278 -13
605 -17 726 l-6 222 336 -58 c312 -53 337 -55 351 -40 19 21 19 34 0 27 -8 -4
-17 -1 -21 5 -4 6 -3 8 4 4 6 -3 13 -2 16 3 7 10 -13 9 -31 -2 -6 -4 -15 -2
-19 4 -5 8 -3 9 6 4 8 -5 11 -4 7 3 -4 5 -16 8 -27 5 -11 -3 -26 -1 -33 5 -16
13 -44 7 -70 -15 -18 -15 -18 -13 3 12 13 17 45 52 70 79 25 27 40 46 34 43
-6 -3 -102 10 -215 29 -178 31 -220 35 -329 32 -111 -4 -131 -7 -181 -31 -105
-51 -179 -154 -233 -327 -37 -115 -45 -240 -33 -510 6 -124 7 -237 4 -252 l-7
-25 -157 -6 c-177 -6 -327 -35 -427 -83 -32 -15 -89 -56 -127 -90 -42 -39 -74
-61 -83 -58 -8 3 -33 61 -56 129 -48 145 -80 194 -155 236 -30 17 -55 32 -55
34 0 1 55 35 123 76 172 102 222 153 351 356 18 27 32 35 91 49 161 39 213
100 231 274 l6 55 169 114 c118 81 171 123 180 143 13 32 -2 159 -27 230 -19
54 -19 52 24 72 104 50 247 171 337 286 23 30 65 94 92 141 39 69 65 99 124
149 119 99 184 164 202 202 20 43 22 133 3 167 -13 23 -11 28 24 73 75 94 88
184 40 278 -19 37 -20 44 -6 58 42 47 50 155 17 220 -11 22 -25 43 -31 47 -5
3 -10 33 -10 65 0 32 -5 71 -11 87 -13 36 -64 88 -99 103 -25 10 -28 18 -34
79 -9 90 -44 162 -97 201 -24 17 -52 33 -63 36 -13 3 -28 22 -40 50 -10 24
-37 60 -59 79 -47 40 -133 70 -176 60 -21 -4 -40 2 -80 26 -53 33 -126 48
-175 35 -35 -9 -92 -60 -121 -110 -13 -23 -56 -124 -95 -226 -63 -163 -76
-189 -114 -226 l-44 -42 -18 40 c-52 116 -222 164 -308 87 -34 -30 -34 -24
-25 -264 5 -138 -16 -208 -66 -225 -20 -7 -59 -27 -87 -46 -28 -19 -52 -33
-53 -32 -1 2 -9 39 -18 83 -49 229 -220 443 -435 539 -35 16 -42 24 -42 48 0
16 -5 48 -11 72 -8 31 -8 54 1 84 12 46 4 42 135 62 222 33 465 150 675 325
97 81 278 268 360 370 94 118 189 267 258 401 92 183 117 261 187 589 20 94
57 249 82 345 74 291 102 445 124 685 8 93 17 141 31 170 34 66 56 140 88 298
43 211 59 263 91 298 15 16 41 32 58 35 41 9 46 31 35 163 l-9 106 -95 2
c-156 5 -140 -22 -140 229 l0 215 40 66 c66 109 119 301 120 432 l0 54 24 -22
c13 -13 32 -21 43 -19 15 3 18 15 21 88 3 75 -7 164 -25 224 -5 18 -3 18 32
-3 27 -16 41 -19 50 -11 45 37 -91 396 -234 617 -27 43 -48 79 -47 80 2 2 26
-2 55 -9 73 -17 82 -5 47 67 -67 135 -264 356 -424 474 -46 33 -91 65 -100 70
-13 7 -5 20 46 78 34 38 62 77 62 86 0 9 -10 23 -22 31 -31 22 -153 72 -283
116 l-110 38 40 16 c46 20 201 66 220 66 25 0 25 30 0 46 -34 23 -148 60 -235
78 -107 22 -361 37 -452 28 -60 -6 -79 -5 -82 5 -3 7 -3 57 1 110 l6 96 -64
-6 c-75 -7 -196 -38 -263 -66 l-46 -20 -93 92 c-59 59 -121 109 -172 139 -87
52 -264 128 -297 128 -23 0 -22 -8 10 -100 11 -30 23 -71 26 -91 l6 -37 -112
49 c-143 62 -379 139 -528 173 -234 52 -504 73 -517 41z m655 -541 c120 -17
256 -55 327 -90 l50 -24 -45 5 c-339 38 -508 33 -775 -20 -65 -13 -121 -22
-123 -20 -9 9 139 69 221 90 l92 23 -100 1 c-118 1 -235 -12 -388 -44 -62 -13
-114 -22 -115 -20 -6 6 209 72 288 89 172 38 358 41 568 10z m1287 -283 c22
-10 49 -28 60 -41 l20 -22 -55 8 c-99 14 -267 6 -377 -19 -57 -13 -103 -22
-103 -20 0 9 170 84 220 97 79 21 186 20 235 -3z m235 -1 c119 -15 272 -46
360 -74 l75 -24 -145 4 c-80 3 -169 7 -197 9 -66 6 -156 39 -191 71 -33 28
-28 29 98 14z m-3016 -124 c-113 -24 -212 -52 -227 -66 -4 -4 19 -10 51 -13
60 -7 172 -42 172 -55 0 -4 -26 -13 -57 -21 -132 -30 -285 -122 -386 -231 -31
-34 -57 -58 -57 -54 0 3 14 33 32 65 42 79 151 182 218 206 27 10 50 20 50 24
0 6 -83 21 -185 34 -48 7 -49 7 -25 20 46 24 204 76 285 95 44 10 116 18 160
19 l80 0 -111 -23z m1730 -150 c148 -70 320 -112 541 -133 l70 -6 -92 -44
c-117 -56 -221 -82 -353 -89 -237 -13 -520 70 -670 197 -31 26 -25 24 50 -15
216 -112 449 -142 661 -85 79 21 95 39 36 39 -78 1 -304 119 -382 200 l-40 42
54 -36 c29 -20 85 -51 125 -70z m1153 -21 c-17 -124 -140 -290 -261 -352 l-30
-15 37 42 c20 24 69 106 108 182 65 126 111 188 141 188 7 0 9 -16 5 -45z
m370 -83 c88 -122 136 -300 115 -422 -30 -169 -136 -285 -307 -336 -67 -20
-267 -24 -320 -6 -25 9 -18 10 50 11 220 3 401 95 472 239 21 43 28 73 31 141
l3 86 -30 -51 c-49 -83 -132 -145 -216 -159 l-40 -7 52 27 c107 54 175 166
181 296 5 93 -13 160 -63 244 l-36 60 31 -30 c18 -16 52 -58 77 -93z m-1602
-319 c160 -128 347 -236 519 -299 109 -39 103 -43 -19 -10 -112 30 -212 68
-284 106 -30 17 -56 28 -59 26 -8 -9 101 -116 175 -173 40 -30 73 -57 73 -60
0 -8 -92 44 -175 101 -106 72 -246 207 -302 291 -41 61 -83 138 -83 152 0 4
24 -15 53 -43 28 -28 75 -69 102 -91z m1935 -198 c14 -64 14 -189 -1 -251 -16
-66 -71 -181 -108 -224 l-30 -35 33 80 c62 151 90 309 80 443 -6 76 8 69 26
-13z m-4416 -36 c-39 -58 -77 -130 -89 -168 -7 -23 -6 -23 40 -17 26 4 65 4
88 0 l42 -8 -47 -7 c-60 -9 -155 -52 -190 -86 l-27 -26 11 39 c18 68 47 134
83 190 36 56 115 147 122 141 2 -2 -13 -28 -33 -58z m931 40 l40 -11 -80 -40
c-141 -70 -247 -162 -311 -272 -19 -34 -32 -50 -28 -36 30 112 84 195 169 260
31 24 53 45 51 47 -8 8 -119 -28 -165 -53 l-43 -24 14 23 c21 32 102 85 157
101 56 18 142 20 196 5z m791 -120 c108 -85 317 -210 599 -358 36 -19 37 -20
10 -15 -67 15 -206 69 -296 116 -119 61 -241 153 -334 249 -76 78 -72 80 21 8z
m-268 -109 c63 -11 139 -20 170 -21 52 -1 54 -2 27 -10 -16 -6 -72 -13 -123
-17 l-93 -7 83 -61 c46 -34 123 -87 172 -118 50 -31 86 -56 82 -56 -5 0 -72
31 -150 69 -155 76 -294 163 -371 234 l-50 45 70 -19 c39 -11 121 -29 183 -39z
m2657 -342 c-56 -93 -160 -222 -210 -265 -87 -72 -54 -80 124 -28 173 50 253
93 385 209 l69 60 -44 -84 c-31 -60 -65 -107 -117 -159 -132 -135 -50 -124 95
13 53 49 83 88 108 139 19 38 35 76 35 83 0 28 23 25 57 -7 72 -69 95 -108
108 -177 27 -139 46 -329 55 -535 9 -204 13 -557 7 -557 -2 0 -43 13 -92 30
-137 46 -279 64 -510 64 -169 0 -216 -3 -302 -22 -149 -32 -233 -66 -366 -145
-147 -87 -218 -107 -392 -107 -136 0 -231 18 -286 54 -102 68 -273 134 -449
175 -297 70 -682 39 -1190 -94 l-175 -46 -217 -6 -218 -5 -2 49 c-8 194 36
319 182 523 45 63 90 132 101 152 18 35 21 37 86 42 153 13 239 28 338 61 238
78 403 188 552 369 l40 50 74 -21 c189 -55 380 -78 559 -70 183 9 379 47 494
96 37 17 49 17 121 5 255 -42 464 3 615 132 l52 44 101 0 c97 0 181 15 223 38
31 17 29 5 -11 -60z m256 -1418 c128 -11 225 -36 281 -75 51 -34 102 -111 100
-149 0 -17 -4 -141 -9 -276 l-8 -245 -49 -75 c-143 -220 -358 -332 -607 -316
-47 3 -115 15 -150 26 -153 47 -302 187 -359 338 l-20 51 28 -10 c41 -17 138
-14 227 7 83 19 221 23 500 14 153 -5 194 8 258 79 51 56 117 159 117 182 0 9
-19 55 -42 101 -80 157 -267 313 -400 334 -21 4 -38 10 -38 15 0 11 26 11 171
-1z m-2131 -20 c278 -34 450 -125 495 -261 40 -119 9 -339 -70 -503 -87 -178
-285 -329 -485 -372 -143 -30 -366 -4 -505 61 -193 89 -335 266 -380 475 l-8
35 55 -56 c79 -80 111 -93 238 -93 58 0 193 4 300 8 169 8 209 6 300 -9 126
-22 232 -23 280 -3 19 8 65 42 102 74 36 32 78 67 93 78 36 25 31 54 -36 193
-44 90 -65 120 -128 184 -42 42 -99 88 -128 102 -68 35 -210 76 -298 86 l-70
8 80 2 c44 0 119 -4 165 -9z m-668 -65 c-95 -48 -204 -139 -257 -215 -36 -53
-42 -40 -15 33 37 99 135 172 280 211 89 24 87 19 -8 -29z m-1707 -79 c131
-65 280 -237 382 -442 40 -79 72 -113 81 -86 2 8 9 9 20 3 43 -23 212 -6 212
21 0 4 14 8 30 8 30 0 30 0 30 58 0 33 -5 130 -11 216 -6 87 -9 159 -7 160 11
9 241 -17 277 -30 57 -22 120 -79 143 -130 10 -23 23 -77 29 -120 45 -331 305
-674 587 -774 247 -89 572 -75 809 35 314 145 502 431 503 763 0 46 5 92 10
102 12 22 82 65 121 74 24 5 177 -9 186 -18 2 -2 -4 -45 -13 -97 -26 -150 -4
-402 52 -581 14 -45 62 -159 107 -252 90 -187 101 -238 77 -344 -10 -47 -21
-65 -70 -113 -89 -89 -171 -102 -381 -59 -110 23 -120 23 -218 10 -119 -16
-164 -8 -194 32 -23 31 -28 101 -13 203 9 56 8 59 -8 46 -23 -20 -53 -79 -61
-123 -11 -61 12 -144 51 -183 53 -53 97 -62 206 -41 103 20 114 16 176 -56 24
-27 48 -42 88 -54 50 -14 62 -14 137 1 96 19 194 62 254 111 36 29 46 34 58
24 35 -29 124 44 144 117 23 82 4 170 -48 222 -48 48 -200 360 -235 484 -29
99 -52 222 -61 317 l-5 65 24 -91 c58 -221 156 -376 301 -479 138 -99 279
-144 480 -152 112 -5 142 -3 215 16 108 27 228 85 320 157 l72 55 -7 -53 c-16
-129 -50 -298 -100 -498 -30 -118 -75 -309 -100 -425 -55 -250 -88 -353 -156
-488 -117 -233 -237 -396 -449 -607 -165 -166 -277 -249 -435 -326 -200 -97
-378 -132 -630 -121 -322 14 -537 78 -920 272 -260 132 -427 229 -658 381
-214 142 -345 263 -454 417 -67 95 -160 269 -199 374 -28 74 -110 359 -119
413 -3 19 -17 45 -31 58 -21 19 -31 21 -67 15 -23 -5 -91 -8 -152 -8 -209 0
-303 53 -474 267 -137 171 -204 269 -252 372 -106 228 -138 508 -78 691 19 59
33 80 88 136 110 110 196 124 336 55z m4340 29 c97 -21 187 -67 249 -130 55
-55 116 -161 116 -202 0 -36 -34 -95 -78 -135 -53 -48 -110 -60 -232 -48 -52
5 -105 10 -118 10 -23 0 -22 1 8 26 40 34 80 113 87 172 22 193 -193 351 -368
270 -102 -47 -162 -136 -163 -243 0 -78 33 -154 87 -200 l39 -34 -28 -7 c-16
-5 -61 -8 -100 -8 -61 1 -80 5 -125 31 l-54 30 -8 91 c-8 85 -7 94 15 138 53
110 189 210 322 239 83 18 265 18 351 0z m-2030 -25 c187 -48 311 -156 375
-328 l21 -55 -38 -39 c-21 -21 -63 -51 -93 -66 -48 -23 -67 -27 -145 -26 -49
0 -103 3 -118 7 l-28 8 25 32 c100 130 89 295 -24 401 -58 54 -104 75 -190 86
-55 8 -49 8 38 4 56 -3 136 -14 177 -24z m-332 4 c-57 -21 -129 -87 -160 -148
-54 -105 -36 -249 40 -330 l32 -34 -97 -7 c-159 -11 -243 28 -299 137 -20 39
-20 42 -4 84 42 109 157 221 274 265 72 27 165 47 216 47 l40 0 -42 -14z m82
-68 c63 -26 75 -97 26 -147 -73 -73 -190 7 -151 102 12 29 51 58 78 59 7 0 28
-6 47 -14z m2049 -17 c56 -44 18 -139 -57 -139 -44 0 -76 29 -84 73 -11 72 79
115 141 66z m-2938 -2720 c9 -14 282 -194 429 -281 127 -76 342 -192 467 -253
l87 -43 -35 -72 c-18 -39 -34 -77 -34 -84 0 -6 43 -33 95 -59 110 -54 114 -61
122 -182 7 -103 -8 -155 -58 -210 -60 -65 -123 -88 -249 -93 l-105 -4 -62 94
c-33 51 -90 125 -125 163 -91 101 -385 354 -588 507 -96 72 -176 134 -178 138
-2 6 37 81 148 285 60 110 69 120 86 94z m3560 -738 c17 -10 33 -27 36 -38 3
-10 -44 -158 -104 -328 -127 -364 -119 -343 -111 -279 7 69 -10 118 -64 175
l-44 48 61 163 c69 181 91 229 120 258 25 25 66 25 106 1z m204 -51 c16 0 72
-53 81 -78 8 -20 -5 -68 -63 -242 l-72 -218 -131 -70 c-71 -38 -131 -69 -132
-68 -1 1 47 143 107 316 93 267 115 319 141 343 18 16 37 26 46 23 8 -3 18 -6
23 -6z m207 -196 c45 -28 69 -105 58 -184 -6 -46 -9 -50 -33 -50 -15 0 -64
-13 -110 -29 -48 -17 -82 -24 -79 -18 2 7 26 78 53 159 53 160 52 159 111 122z
m-1034 -212 c17 -16 35 -52 48 -91 l20 -65 -42 -42 c-23 -24 -62 -57 -87 -75
l-44 -32 7 69 c4 39 1 107 -5 157 -7 48 -9 95 -6 103 9 24 74 9 109 -24z m316
-96 c34 -37 26 -103 -28 -212 -57 -113 -90 -145 -182 -173 -104 -31 -123 -42
-127 -73 -4 -32 21 -58 58 -58 48 0 152 38 225 82 104 63 431 239 592 320 123
61 149 71 199 72 55 1 58 0 65 -28 19 -68 12 -74 -402 -315 -211 -123 -392
-233 -401 -243 -20 -22 -9 -58 18 -58 8 0 195 105 415 234 345 202 408 236
454 241 63 8 72 4 91 -41 18 -43 3 -83 -49 -133 -19 -18 -208 -142 -419 -275
-253 -159 -384 -248 -387 -261 -2 -10 5 -24 14 -31 23 -17 1 -30 435 245 l365
230 22 -37 c28 -45 29 -72 4 -121 -29 -57 -103 -114 -464 -366 -181 -125 -331
-234 -334 -243 -7 -16 7 -44 24 -49 5 -2 162 102 348 231 303 210 340 233 352
218 7 -9 13 -35 13 -56 0 -36 -6 -46 -57 -94 -149 -139 -551 -441 -758 -570
-205 -127 -363 -181 -551 -189 -67 -3 -142 -3 -166 1 l-45 7 -6 147 c-9 244
-56 446 -140 604 l-40 77 37 123 c52 171 83 244 131 303 35 43 61 60 191 125
238 119 324 195 426 380 20 35 34 32 77 -14z m3475 -2203 c3 -54 8 -138 11
-188 6 -92 70 -1115 80 -1260 3 -44 10 -163 15 -265 6 -102 14 -255 20 -340 5
-85 12 -202 15 -260 3 -58 8 -131 11 -164 6 -58 6 -59 -19 -54 -24 5 -24 4
-21 -56 11 -183 11 -226 4 -231 -7 -4 -18 71 -36 231 l-6 61 -57 6 c-31 3
-131 11 -223 18 l-167 12 -6 41 c-3 23 -17 140 -31 261 -36 312 -44 366 -38
245 5 -95 40 -461 49 -512 4 -23 1 -28 -15 -28 -11 0 -20 4 -20 9 0 6 -29 272
-65 593 -57 515 -178 1635 -187 1727 l-3 34 335 112 c184 62 338 111 341 109
4 -2 9 -48 13 -101z m-10948 72 c117 -20 174 -39 261 -87 253 -138 411 -395
471 -768 11 -69 23 -155 25 -193 4 -58 2 -69 -13 -77 -10 -5 -113 -75 -230
-156 -116 -80 -217 -143 -225 -141 -7 3 -16 31 -20 63 -44 357 -328 592 -612
506 -212 -65 -417 -312 -507 -612 -82 -277 -87 -615 -12 -832 38 -107 91 -170
182 -214 52 -25 83 -34 100 -30 13 4 24 2 24 -4 0 -5 17 -10 38 -9 26 0 32 2
18 8 -12 5 -2 7 30 8 63 1 274 74 274 95 0 4 6 8 14 8 8 0 16 6 19 13 8 22 16
2 32 -79 8 -43 15 -80 15 -81 0 -2 -9 -3 -20 -3 -27 0 -26 -10 15 -190 20 -84
33 -155 31 -157 -3 -3 -36 61 -76 141 -39 80 -72 146 -74 146 -2 0 -32 -13
-67 -29 -85 -38 -175 -55 -254 -48 -71 7 -171 44 -221 82 -19 14 -34 21 -34
16 0 -6 5 -11 12 -11 6 0 9 -3 5 -6 -3 -4 -129 -19 -279 -35 -253 -26 -274
-27 -286 -11 -30 40 -113 215 -140 298 -17 51 -35 100 -41 110 -6 11 -15 62
-20 114 l-10 95 4 -106 c7 -160 45 -318 115 -474 26 -59 27 -65 11 -65 -36 0
-124 233 -157 415 -28 156 -26 628 4 820 56 359 155 629 320 876 124 184 247
311 407 419 162 109 304 161 535 194 68 9 257 4 336 -9z m3587 -667 c4 -123 9
-522 12 -888 3 -366 8 -704 11 -752 l5 -88 -36 0 -35 0 -1 -222 c0 -139 -4
-212 -9 -193 -7 26 -33 360 -32 407 1 13 -4 15 -26 8 -15 -5 -144 -11 -287
-14 -143 -3 -339 -9 -435 -12 l-175 -7 -78 169 c-87 190 -105 218 -130 208
-27 -10 -32 -47 -31 -221 l0 -161 -50 -6 c-28 -3 -137 -8 -242 -12 l-191 -7
-7 -226 c-3 -124 -9 -334 -13 -466 l-8 -240 -6 185 c-4 102 -7 305 -8 452 -1
217 -4 269 -15 281 -8 8 -16 34 -19 58 l-4 44 -1 -47 c-2 -39 -5 -48 -20 -48
-18 0 -19 22 -26 463 -3 254 -9 581 -12 727 l-7 265 299 78 c164 43 304 77
311 77 6 0 15 -10 19 -22 11 -36 591 -1268 684 -1453 l31 -60 -6 115 c-3 63
-12 212 -20 330 -14 212 -30 478 -60 993 -9 144 -18 294 -21 332 l-6 71 309
51 c169 28 313 51 319 52 7 1 13 -69 17 -221z m702 -106 c98 -44 181 -84 183
-90 5 -16 -63 -180 -104 -254 -46 -81 -131 -185 -203 -247 -68 -59 -181 -133
-197 -129 -6 2 -46 40 -88 85 l-77 82 49 73 c100 149 158 277 197 430 9 35 21
80 26 101 6 24 15 37 22 33 7 -2 93 -41 192 -84z m5511 -262 c39 -118 121
-354 182 -525 111 -311 273 -776 317 -913 l23 -74 -25 7 c-29 7 -32 20 34
-168 24 -71 42 -134 40 -140 -2 -6 -35 63 -73 154 -39 90 -75 163 -81 162 -5
-1 -104 4 -218 12 -201 14 -224 19 -225 48 0 4 -11 12 -25 17 -19 7 -55 4
-133 -13 -103 -21 -114 -22 -312 -11 -113 6 -252 13 -310 15 l-104 4 -67 -243
c-36 -133 -70 -246 -74 -250 -4 -4 -5 2 -2 13 10 33 107 467 107 476 0 5 -11
9 -25 9 -14 0 -25 1 -25 3 0 2 29 134 65 293 36 159 86 379 110 489 75 334
181 774 188 782 7 7 531 72 552 69 6 -1 42 -98 81 -216z m2411 -170 c499 -83
908 -151 909 -153 2 -1 -10 -68 -26 -147 -15 -80 -45 -238 -66 -352 -21 -115
-41 -214 -45 -220 -6 -10 -22 -9 -71 5 -203 56 -518 121 -530 109 -8 -8 -35
-212 -69 -531 -17 -150 -27 -215 -37 -218 -7 -3 -15 -3 -19 0 -6 7 53 610 70
711 8 45 18 73 29 80 23 14 179 -12 412 -70 98 -25 179 -44 180 -42 1 2 17 89
35 193 18 105 35 204 38 220 3 17 3 27 -1 24 -4 -4 -20 -78 -37 -165 -17 -88
-32 -160 -33 -162 -2 -1 -76 16 -165 38 -199 49 -374 82 -409 78 -19 -2 -28
-11 -34 -33 -18 -69 -71 -485 -104 -807 -6 -62 -8 -67 -28 -63 -11 2 -100 11
-196 20 -96 9 -184 20 -196 25 -11 4 -25 5 -31 2 -5 -4 -31 -126 -57 -272 -74
-410 -153 -774 -155 -718 -2 34 99 821 124 974 5 29 4 30 -26 26 -30 -4 -31
-3 -25 24 5 26 116 731 116 739 0 7 -63 15 -265 35 -351 33 -316 26 -311 63 3
18 24 191 47 385 33 273 45 352 56 352 8 0 422 -68 920 -150z m-5637 -205 c87
-356 230 -955 230 -967 0 -4 -9 -8 -21 -8 -15 0 -19 -5 -15 -17 26 -84 166
-657 163 -666 -5 -17 -56 122 -152 418 l-86 265 -219 0 c-120 0 -229 4 -242 9
-20 8 -32 36 -83 196 -32 102 -63 189 -68 192 -22 14 -17 -21 31 -190 29 -101
52 -186 52 -190 0 -4 -8 -7 -17 -7 -15 0 -42 78 -151 438 -72 240 -132 442
-132 447 1 13 623 384 632 376 4 -3 39 -136 78 -296z m1064 28 c13 -43 95
-291 181 -552 86 -260 154 -476 151 -479 -3 -3 -195 0 -427 7 -231 7 -422 11
-423 9 -2 -2 -17 -96 -35 -209 -48 -303 -62 -300 -41 9 6 81 12 159 15 175 4
24 2 27 -25 27 -17 0 -30 2 -30 4 0 2 16 123 35 267 56 431 90 709 90 740 0 0
106 17 235 38 129 21 238 39 242 40 3 0 18 -34 32 -76z m-7793 -120 c21 -23
54 -85 83 -155 69 -167 129 -230 246 -258 65 -15 80 -25 80 -53 0 -32 -120
-299 -148 -329 -31 -33 -38 -34 -120 -8 -91 28 -204 27 -326 -5 -53 -14 -111
-25 -130 -25 -49 0 -56 25 -56 208 1 220 37 374 118 502 71 112 124 159 183
160 30 0 43 -7 70 -37z m5758 -85 c-5 -18 -14 -64 -20 -103 -6 -39 -18 -74
-26 -80 -11 -8 -34 -8 -77 -2 -33 6 -62 11 -63 12 -2 1 4 24 12 51 14 45 21
53 98 100 45 29 83 52 84 53 1 1 -3 -14 -8 -31z m-4624 -34 c132 -9 240 -17
241 -18 2 -5 124 -824 124 -833 0 -7 -9 -13 -20 -13 -11 0 -20 -4 -20 -9 0 -5
20 -135 44 -288 24 -153 53 -341 65 -418 11 -77 32 -216 46 -309 14 -93 24
-171 22 -173 -4 -3 -20 76 -167 791 -44 214 -82 391 -84 393 -2 3 -67 1 -143
-4 l-138 -8 2 -25 c1 -14 18 -134 38 -268 20 -134 35 -245 33 -247 -5 -5 -204
22 -340 46 l-126 22 18 41 c14 33 22 41 41 39 13 -1 89 -6 169 -11 80 -6 146
-10 146 -9 1 1 -5 94 -15 207 -14 178 -18 205 -32 202 -18 -3 -28 45 -30 142
-3 124 -12 121 -59 -21 -36 -107 -48 -133 -63 -133 -13 0 -17 5 -13 18 4 9 25
76 49 147 36 113 45 130 65 133 40 6 52 -14 53 -92 l1 -71 9 60 c10 67 -2 188
-21 211 -21 24 -58 17 -73 -13 -8 -16 -40 -107 -72 -203 -31 -96 -64 -180 -71
-186 -8 -7 -75 -15 -149 -19 l-135 -7 -202 -409 c-111 -225 -203 -408 -204
-406 -2 2 69 172 157 378 89 206 165 386 169 402 8 24 6 27 -16 27 -27 0 -27
-2 24 110 11 25 82 189 157 365 75 176 142 334 149 350 8 17 24 54 36 83 23
52 24 53 59 48 20 -3 144 -13 276 -22z m3265 -149 c140 -20 343 -49 450 -65
309 -46 671 -99 720 -105 105 -13 196 -26 215 -30 l21 -4 -23 -168 c-33 -237
-32 -233 -50 -233 -13 0 -15 9 -9 60 3 33 9 88 13 122 6 59 5 62 -11 45 -10
-9 -29 -61 -43 -115 -14 -53 -28 -100 -32 -104 -11 -12 -1021 -14 -1021 -2 0
6 -75 15 -202 22 -293 18 -294 18 -305 -15 -8 -23 -15 -27 -52 -29 l-42 -2 5
41 c3 23 15 155 26 292 29 356 26 337 58 331 15 -3 142 -22 282 -41z m-1823
-415 c12 -25 40 -91 62 -147 35 -91 37 -103 21 -103 -13 0 -30 29 -66 118
l-49 117 -7 -55 c-3 -30 -6 -83 -7 -117 -1 -35 -5 -63 -11 -63 -11 0 -13 129
-3 233 7 82 24 86 60 17z m2147 -297 c-8 -37 -194 -928 -243 -1168 -89 -437
-92 -387 -6 135 30 179 63 390 75 470 28 195 79 520 85 547 5 20 19 26 77 32
11 0 15 -5 12 -16z m-486 -550 c4 -50 -34 -257 -53 -293 -13 -22 -14 -4 -15
152 0 185 1 189 45 185 16 -2 21 -10 23 -44z"/>
<path d="M9295 12090 c-167 -19 -420 -117 -465 -180 -28 -39 -45 -126 -31
-156 15 -33 35 -31 160 15 58 21 165 54 236 72 122 32 140 34 300 34 152 0
177 -2 240 -23 126 -42 293 -138 391 -224 l36 -32 -25 49 c-60 116 -164 235
-267 305 -73 50 -182 104 -250 124 -68 21 -218 28 -325 16z"/>
<path d="M7183 12060 c-128 -33 -270 -109 -391 -209 -70 -58 -202 -231 -202
-265 0 -3 37 22 83 55 104 76 298 172 402 199 211 55 507 28 837 -77 62 -19
124 -35 137 -35 54 -1 62 70 20 154 -15 30 -35 46 -90 73 -95 48 -225 90 -338
109 -134 23 -364 21 -458 -4z"/>
<path d="M5012 11090 c-25 -11 -21 -30 6 -30 33 0 159 -68 201 -108 l42 -40
-37 -52 c-112 -155 -126 -399 -29 -515 l25 -30 -20 59 c-35 105 -20 256 37
371 19 38 63 85 79 85 28 0 157 -193 184 -275 9 -24 14 -89 14 -165 1 -134 5
-148 71 -239 32 -43 41 -92 23 -127 -31 -63 -71 -58 -227 31 -63 36 -117 65
-120 65 -14 0 62 -66 126 -111 124 -85 179 -98 232 -54 63 54 65 141 3 240
l-37 60 0 155 0 155 -34 65 c-95 184 -261 380 -364 429 -69 33 -140 46 -175
31z"/>
<path d="M9185 9196 c-19 -29 -109 -52 -337 -88 -125 -19 -182 -22 -458 -22
-333 -1 -449 8 -740 58 -111 19 -136 27 -148 45 -8 12 -25 21 -39 21 -32 0
-103 -56 -103 -80 0 -27 27 -50 59 -50 23 0 37 -12 79 -69 179 -240 457 -382
827 -421 195 -21 371 7 530 85 160 78 255 172 338 332 41 80 43 82 81 85 22 2
43 10 49 19 16 26 0 66 -37 88 -45 28 -82 27 -101 -3z m-1469 -156 c222 -34
439 -50 670 -50 276 0 383 10 708 68 l29 5 -19 -32 c-153 -260 -423 -385 -761
-351 -287 29 -488 111 -667 273 -65 58 -107 107 -93 107 2 0 62 -9 133 -20z"/>
<path d="M8670 8438 c-36 -5 -165 -10 -287 -11 -176 -2 -223 -5 -223 -15 0
-19 74 -49 154 -63 155 -26 397 14 456 76 l23 25 -29 -1 c-16 -1 -58 -6 -94
-11z"/>
<path d="M11707 3410 c-3 -8 -19 -89 -36 -180 -17 -91 -39 -214 -51 -275 -31
-170 -42 -156 102 -125 84 18 124 31 125 41 4 24 -134 555 -140 539z"/>
</g>
</svg>
